<svg height='100px' width='100px'  fill="#000000" xmlns="http://www.w3.org/2000/svg" xmlns:xlink="http://www.w3.org/1999/xlink" version="1.1" x="0px" y="0px" viewBox="0 0 90 90" enable-background="new 0 0 90 90" xml:space="preserve"><path d="M37.6,56.2h11.1V42.8H37.6V56.2z M38.5,43.7h9.3v11.6h-9.3V43.7z M40.2,45.4h5.6v0.9h-5.6V45.4z M40.2,47.5h5.6v0.9h-5.6  V47.5z M40.2,49.6h5.6v0.9h-5.6V49.6z M43.1,51.5c-0.8,0-1.5,0.7-1.5,1.5s0.7,1.5,1.5,1.5s1.5-0.7,1.5-1.5S43.9,51.5,43.1,51.5z   M43.1,53.6c-0.3,0-0.6-0.3-0.6-0.6c0-0.3,0.3-0.6,0.6-0.6s0.6,0.3,0.6,0.6C43.7,53.4,43.4,53.6,43.1,53.6z M68.2,56.4  c0.2-0.2,0.5-0.3,0.9-0.4v2.5c-0.4-0.1-0.7-0.3-0.9-0.5c-0.2-0.2-0.3-0.4-0.3-0.8C67.9,56.8,68,56.6,68.2,56.4z M72.6,48.8l0.6-1.3  c0.3-0.8,0.1-1.6-0.4-2.2c2.9-6.7,1.3-8.6,0.1-6.8c-1.3,2-1.5,5.3-5.9-0.1c-3.1-3.7-1.9,2-0.8,5.8l-2.8,0l-2.8-5.6l0,0  c-0.1-0.4-0.3-0.8-0.5-1.3V24.9c0-1.1-0.9-2-2-2h-0.4c0,0.1,0,0.3,0,0.4c0,0.3,0,0.7,0,1h0.5c0.4,0,0.7,0.3,0.7,0.7V35  c-1-1.4-2.2-2.5-3.7-3.6c2.1-2.9,3-6.6,2.5-10.3c-1.2-7.8-8.7-13.2-16.7-12c-7.4,1.1-12.7,7.5-12.6,14.6c0-0.1,0-0.2,0-0.3  c0-0.1,0-0.3,0-0.4h-0.5c-1.1,0-2,0.9-2,2v12.9c-0.1,0.2-0.2,0.4-0.3,0.7l-3.1,6.1l-1.3,1.2c-0.3-1-0.5-2-0.8-3  c-0.1-0.4-0.4-0.6-0.7-0.6l-0.2,0l-1-5.4l-0.1-0.4c0-0.1,0.1-0.1,0.1-0.2c0,0,0,0,0,0c0.6-1.1,0.7-2.7,0.3-4.6  c-0.1-0.8-0.4-1.6-0.8-2.4c-1.4-3.1-4.1-5.8-4.2-5.9L13,22.7l-0.3,0.7c-0.1,0.1-1.6,3.6-1.9,7c-0.1,0.9,0,1.8,0.1,2.5  c0.4,2,1.1,3.5,2.1,4.3l0.1,0.3l1,5.5c-0.3,0.1-0.5,0.4-0.4,0.7c0,0.6,0.1,1.1,0.1,1.7c0,0.5,0.2,1.8,0.4,3.7  c-0.7,0.3-1.3,1-1.3,1.8l-0.2,4.3c0,1.1,0.8,2,1.9,2.1c0,0,0.4,0,0.8,0c0,0.1,0,0.2,0,0.2c0,0,0,0,0,0c2.7,13.2,7.6,23,7.7,23.1  c0.1,0.3,0.4,0.4,0.6,0.4c0.2,0,0.3-0.1,0.4-0.3c0-0.1,0.1-0.2,0.1-0.3c0-0.1,1-10.5-1.1-24l-0.4-1.9l4.1-1.6l4.2-3.1v28h0v2.9h11.5  h1.3h11.5v-4c0-0.1,0-0.1,0-0.2V50.5l3,2.8l4.1-0.5c-1.7,2.7-2.8,6.2-2.8,9.1c0,5.9,4.4,8,9.8,8c5.4,0,9.8-2.1,9.8-8  C79.3,57.1,76.5,51,72.6,48.8z M67.2,47.3c0.4-1,1.5-1.7,2.6-1.7c0.4,0,0.8,0.1,1.1,0.2c0.1,0,0.6,0.3,0.6,0.3  c0.3,0.1,0.5,0.5,0.4,0.9l-1.7,3.9c-0.1,0.2-0.3,0.4-0.6,0.4c-0.1,0-0.2,0-0.3,0c-0.4-0.2-0.9-0.4-1-0.5l0,0  C67.1,50,66.7,48.5,67.2,47.3z M40.8,10.4c7.3-1.1,14.1,3.8,15.2,10.9c1.1,7.1-4,13.8-11.3,14.9c-1.9,0.3-3.8,0.2-5.6-0.3  c0.6,0,1.3,0,1.9-0.1l0,0c5.7-0.9,9.5-7.1,8.5-13.9c-0.4-2.9-1.4-4.4-2.1-5.1c0,0-0.1-0.1-0.2-0.2l-0.1,0c-0.9-0.8-3.7-2.5-9.3-1.6  c0,0-0.1,0-0.2,0c-1.2,0.2-4.6,0.8-6.7,2.5C32.8,13.8,36.4,11.1,40.8,10.4z M29.4,22.5c0-0.7,0.1-1.3,0.3-2c0.1-0.3,0.2-0.5,0.3-0.7  l0,0c1.1-3,6.6-3.9,7.8-4.1c0.1,0,0.2,0,0.2,0c5.5-0.8,8,0.9,8.7,1.4l0.1,0c0.1,0.1,0.2,0.1,0.2,0.2c0.5,0.6,1.4,1.9,1.9,4.7  c1,6.3-2.5,12.1-7.8,12.9l0,0c-5.3,0.8-10.3-3.7-11.3-10C29.4,23.9,29.4,23.2,29.4,22.5z M26.9,24.9c0-0.4,0.3-0.7,0.7-0.7H28  c0,0,0,0,0,0c0,0.4,0.1,0.8,0.1,1.2c0.3,2.3,1.2,4.3,2.5,6.1c-1.5,1.1-2.7,2.4-3.8,3.8V24.9z M18,42.4l-2.9,0.5l-0.9-5  c0.5,0.1,1,0.1,1.5,0.1c0.5-0.1,1-0.3,1.4-0.5L18,42.4z M13.6,36.1c-0.8-0.5-1.3-1.7-1.7-3.4c-0.1-0.4-0.1-0.9-0.1-1.5  c0,0,0.2-3.8,1.2-6.9c0,0,3,3.7,3.8,6c0.2,0.5,0.3,1,0.4,1.4c0.3,1.7,0.2,3-0.4,3.7c-0.3,0.5-0.9,0.8-1.6,0.9  C14.7,36.6,14.1,36.5,13.6,36.1z M15.6,56L15.6,56c-0.1,0-0.4,0-0.6,0c-0.3,0-0.5,0-0.5,0c-0.4,0-0.7-0.3-0.6-0.7l0.2-4.3  c0-0.1,0.1-0.3,0.2-0.4c0.1-0.2,0.3-0.3,0.6-0.3c0,0,0,0,0,0c0,0,0.3,0,0.5,0c0.1,0,0.1,0,0.1,0c1.5,0.1,2.8,1.4,2.7,2.9  c0,1.2-0.8,2.2-1.9,2.6C16,56,15.8,56,15.6,56z M23,77.9c-1.5-3.5-4.6-11.2-6.6-20.7c1.7-0.5,3-2,3-3.8c0.1-2.3-1.7-4.2-4-4.3  c0,0-0.2,0-0.3,0c0-0.2-0.1-0.4-0.1-0.6c-0.1-1.3-0.2-2.6-0.3-3.9l4.3-0.7c0.3,1.1,0.6,2.3,0.9,3.4c0.7,2.8,1.3,5.7,1.7,8.7  C23.2,65.9,23.2,74.1,23,77.9z M42.5,79.5H32.2v-1.6h10.2V79.5z M32.3,76.5c0.3-2.6,2.5-4.7,5.1-4.7c2.6,0,4.8,2,5.1,4.7H32.3z   M54,79.5H43.8v-1.6H54V79.5z M43.8,76.5c0.3-2.6,2.5-4.7,5.1-4.7c2.6,0,4.8,2,5.1,4.7H43.8z M65.7,49.2c-0.8,0.6-1.6,1.4-2.3,2.2  L58.9,52l-3.6-3.5v0H54v24.7c-1.2-1.6-3-2.6-5.1-2.6c-2.1,0-3.9,1-5.1,2.6v-9.7h-1.3v9.7c-1.2-1.6-3-2.6-5.1-2.6  c-2.1,0-3.9,1-5.1,2.6V48.5h-1.3l-4.7,3.4l-3.8,1.7l-1.3-6.4l1.6-1.4l3.7-6.7c1-2.5,2.7-4.7,5.1-6.4c3.2,3.7,8.2,5.7,13.4,4.9  c3.7-0.6,6.9-2.4,9.1-5.1c2.2,1.6,3.6,3.6,5,6l3.7,7l3.7-0.1c0.1,0.2,0.1,0.4,0.2,0.5c-0.2,0.3-0.4,0.6-0.5,0.9  C65.6,47.5,65.6,48.4,65.7,49.2z M72.6,63c-0.2,0.4-0.6,0.8-1,1.1c-0.5,0.3-1,0.4-1.6,0.5v1.1c0,0.3,0,0.4-0.1,0.6  c-0.1,0.1-0.2,0.2-0.3,0.2c-0.2,0-0.3,0-0.3-0.1c-0.1-0.1-0.1-0.2-0.1-0.4v-1.2c-0.5-0.1-1-0.2-1.3-0.4c-0.4-0.2-0.7-0.4-1-0.7  c-0.3-0.3-0.4-0.6-0.6-0.9c-0.1-0.3-0.2-0.6-0.2-0.9c0-0.2,0.1-0.4,0.2-0.6c0.2-0.2,0.4-0.3,0.6-0.3c0.2,0,0.4,0,0.5,0.1  c0.1,0.1,0.2,0.2,0.3,0.4c0.1,0.4,0.2,0.6,0.3,0.8c0.1,0.2,0.2,0.4,0.4,0.5c0.2,0.2,0.4,0.3,0.7,0.4v-3.1c-0.6-0.2-1.1-0.3-1.5-0.5  c-0.4-0.2-0.7-0.5-1-0.9c-0.2-0.4-0.4-0.8-0.4-1.4c0-0.8,0.2-1.4,0.7-1.9c0.5-0.5,1.2-0.8,2.1-0.8v-1c0-0.4,0.1-0.6,0.4-0.6  c0.3,0,0.4,0.2,0.4,0.5v1c0.5,0,0.9,0.1,1.2,0.3c0.3,0.1,0.6,0.4,0.9,0.7c0.2,0.2,0.3,0.5,0.5,0.7c0.1,0.2,0.2,0.5,0.2,0.7  c0,0.2-0.1,0.4-0.2,0.6c-0.2,0.2-0.4,0.2-0.6,0.2c-0.4,0-0.7-0.2-0.8-0.7c-0.1-0.6-0.5-0.9-1-1.1v2.7c0.5,0.1,1,0.3,1.3,0.4  c0.3,0.1,0.6,0.3,0.9,0.5c0.3,0.2,0.5,0.5,0.6,0.9c0.1,0.3,0.2,0.7,0.2,1.1C72.9,62.1,72.8,62.6,72.6,63z M70.9,61  c0.2,0.2,0.4,0.5,0.4,0.9c0,0.4-0.1,0.7-0.4,0.9c-0.2,0.3-0.6,0.4-1,0.5v-2.9C70.4,60.6,70.7,60.7,70.9,61z"></path></svg>